<?xml version="1.0" encoding="UTF-8"?>
<!DOCTYPE svg PUBLIC "-//W3C//DTD SVG 1.1//EN" "http://www.w3.org/Graphics/SVG/1.1/DTD/svg11.dtd">
<!-- Creator: CorelDRAW 2017 -->
<svg xmlns="http://www.w3.org/2000/svg" xml:space="preserve" width="1999px" height="1104px" version="1.1" style="shape-rendering:geometricPrecision; text-rendering:geometricPrecision; image-rendering:optimizeQuality; fill-rule:evenodd; clip-rule:evenodd"
viewBox="0 0 1172.15 647.32"
 xmlns:xlink="http://www.w3.org/1999/xlink">
 <defs>
  <style type="text/css">
   <![CDATA[
    .fil0 {fill:black}
    .fil1 {fill:white}
   ]]>
  </style>
 </defs>
 <g id="Layer_x0020_1">
  <metadata id="CorelCorpID_0Corel-Layer"/>
  <g id="_102827664">
   <polygon class="fil0" points="0,647.32 1172.15,647.32 1172.15,0 0,0 "/>
   <path class="fil1" d="M823.09 305.72c0.61,-11.21 3.59,-12.23 0.19,-24.82 4.44,-1.05 5.05,-1.05 7.48,-4.1l2.75 -4.33c0.39,-1.03 0.53,-0.44 1.12,-0.87 1.47,-1.07 -0.44,-0.14 0.83,-1.02l0.32 -0.15c0.03,-0.03 0.12,-0.09 0.14,-0.12l0.28 -0.5c0.02,-0.04 0.06,-0.15 0.09,-0.18 1.09,-1.44 0.33,-0.3 0.59,-0.41 1.17,-0.49 2.67,-1.42 3.3,-2.5 1.56,-2.63 3.36,-4.54 6.29,-5.77l0.13 -6.18c7.55,-0.89 13.7,3.1 14.95,-3.93 1.81,0.72 4.4,3.81 5.71,5.69 2.38,3.4 8.88,10.05 10.14,12.85 1.41,3.11 -0.82,5.8 -1.81,8.71 8.54,2.16 6.69,4.03 11.19,0.18 1.66,-1.42 1.89,-0.84 3.56,-1.55l3.5 8.55c1.61,3.38 2.24,6.19 3.44,8.97 -1.76,0.34 -1.22,0.78 -0.86,4.06 0.85,7.65 -3.51,10.84 0.05,15.11 6.43,7.71 7.4,3.75 7.87,18.04 0.84,0.93 2.19,1.59 3,2.24 2.04,1.64 1.11,1.22 3.21,1.48 0.03,0.55 -1.47,1.33 0.36,1.34 0.3,0 -0.05,0.01 0.39,-0.06l0.49 1.35c0.07,0.01 0.2,-0.07 0.23,0.01 0.16,0.44 0.65,-0.04 1.23,0.13 0.02,0.72 -0.51,0.39 -0.12,1.3 0.63,1.49 0.75,-0.61 0.74,1.85 -8.7,-0.94 -13.61,-11.97 -18.47,-14.93 -2.54,-1.56 -5.67,-2.25 -8.96,-2.65 0,1.43 -0.39,4.37 -0.24,5.16 0.2,1.02 0.35,1.05 1.13,1.66 0.88,0.68 1.21,0.6 1.73,1.4 2.25,3.47 0,3.3 5.24,6.45 1.58,0.95 2.12,1.37 3.46,2.37 3.84,2.87 0.32,4.35 5.6,11.94 1.78,2.57 2.62,4.64 3.88,7.4 1.63,3.6 3.31,3.74 5.36,6.31 1.73,2.15 3.02,4.52 5.9,5.79 2.49,1.11 2.1,0.23 2.9,2.97 0.97,3.29 0.98,1.72 2.93,1.42 2.56,2.71 1.77,3.37 6.55,5.46 3.26,1.42 5.93,2.31 9.12,3.33 4.18,1.35 17.14,4.41 21.4,2.85l0.63 -2.14c0.02,-0.99 -0.26,-1.46 -0.83,-2.03 -1.63,-1.65 -10.42,-4.78 -12.42,-5.13 -4.4,-0.76 -5.44,2.29 -9.22,2.22 -3.12,-0.05 -4.01,-4.46 -6.21,-5.56l-4.36 0.29c-0.51,-10.33 4.28,-9.91 -2.91,-17.09 -0.99,-0.99 -1.73,-1.78 -2.73,-2.72 -1.9,-1.77 -1.38,-0.82 -2.36,-3.47 -0.73,-1.99 -2.65,-6.5 -2.77,-8.37l4.98 -0.03c-0.71,-1.11 -1.34,-1.39 -2.05,-2.3 -0.93,-1.18 -0.68,-1.81 -1.42,-3.23 -1.57,-3.02 -1.7,-3.44 -1.64,-7.41 0.07,-4.7 -0.33,-3.57 -3.26,-5.61 -1.64,-1.14 -0.94,-1.09 -1.63,-3.05 -0.49,-1.36 -1.08,-1.72 -2.15,-2.52 -1.37,-1.03 -4.3,-2.78 -4.89,-4.07 -0.81,-1.77 -1.53,-4.84 -2.41,-6.93 -2.49,-5.94 -1.72,-4.62 -0.25,-10.01 0.37,-1.37 0.39,-2.56 0.81,-3.78l1.5 -0.03c0.64,0.1 0.98,0.24 1.58,0.43 1.68,0.52 4.27,1.54 5.65,2.94 1.65,1.67 -0.18,1.21 1.91,2.36 1.72,0.94 0.95,-0.01 2.36,1.52 3.31,3.58 4.84,2.33 3.41,8.61 13.13,0 7.77,-8.84 19.34,-10.84 0,-5.89 0.94,-12.85 -2.41,-17.7 -3.56,-5.16 -8.21,-9.46 -12.85,-13.65 -1.33,-1.2 -2.51,-1.58 -3.9,-3.09 0.72,-1.47 1.48,-2.57 2.2,-4.02 3.41,-6.89 3.64,-7.18 12.57,-6.93 0,9.29 -1.26,4.26 -5.28,9.72 1.09,1.37 1.77,1.83 2.51,3.97 4.4,0.18 6.67,-0.73 9.69,-2.74 0.2,-4.5 -2.52,-4.97 -2.53,-9.71 3.6,-1.53 5.76,-3.01 9.81,-4.16 4.17,-1.18 3.76,-0.84 7.96,-2.58 1.92,-0.79 0.95,-0.38 2.08,-1.81 2.64,-3.31 8.16,-0.9 11.76,-16.71 2.6,-11.39 6.51,-6.83 2.13,-14.8 -1.84,-3.34 -0.55,-8.28 -3.85,-10.6 -7.34,-5.14 -3.03,-4.67 -6.28,-7.72 -1.29,-1.21 -3.4,-1.7 -5.59,-1.81 -1.11,-6.93 5.45,-7.53 7.7,-11.12 -1.07,-2.43 -3.45,-3.5 -6.8,-3.84 -1.9,-0.19 -2.36,0.37 -3.31,1.63 -1.52,2.01 -0.88,1.36 -3.23,2.14 -1.83,-1.43 -0.73,-1.52 -4.18,-3.92 -1.36,-0.94 -3.38,-2.66 -4,-4.15l4.82 0.05c0.9,-2.06 -0.44,-3.67 1.34,-5.22 1.36,-1.18 3.35,-1.63 5.76,-1.63 -1.18,4.37 -0.83,4.77 0.37,9.28 3.47,-0.13 3.54,-2.05 6.51,-3.2 2.73,-1.04 5.33,-0.69 8.31,-1.88l0.09 7.97c2.72,0.33 4.14,-0.65 5.86,1.26 1.52,1.69 3.24,5.23 4.31,7.4 0.46,0.93 0.38,1.87 0.71,2.46 1.23,2.16 2.85,-0.21 2.85,5.39 3.91,-0.53 2.23,-0.63 4.02,-2.3 0.9,-0.84 6.93,-1.71 5.17,-6.56 -1,-2.74 -1.84,-1.85 -3.28,-3.42 -1.88,-2.05 -1.53,-4.01 -5.52,-7.31 -1.89,-1.57 -4.98,-3.81 -6.94,-6.22 1.48,-2.12 4.24,-1.84 6.47,-3.12 -0.25,-1.84 -1.12,-3.68 -1.08,-5.42 0.05,-1.68 0.93,-3.68 1.17,-5.44 2.39,0.08 4.35,1.11 6.91,0.68 5.48,-0.92 2.54,-4.76 6.6,-9.38 1.55,-1.78 2.8,-1.92 3.13,-5.02 0.69,-6.48 0.04,-11.75 -3.54,-16.22 -0.78,-0.97 -1,-1.51 -1.76,-2.48 -1.43,-1.82 -2.1,-2.96 -2.85,-5.59 3.27,1.72 6.48,5.37 9.56,7.81 1.43,1.12 1.32,1.81 2.23,3.61 1.27,2.48 2.88,4.67 4.31,7 13.5,22.04 2.49,17.45 8.25,25.63 3.87,5.5 4.37,11.1 4.37,18.36 -2.22,0.26 -3.62,-1.12 -5.39,-0.4 -1.72,1.02 -1.49,4.25 -1.79,6.39 -2.73,0.29 -9.1,2.14 -11.54,3.28 -2.68,1.24 -2.19,1.61 -2.79,4.68 -0.41,2.13 -2.02,3.11 -3.04,4.45 1.24,2.2 2.41,2.53 3.35,5.36 0.84,2.53 0.68,4.63 1.97,6.61 4.76,-0.41 5.45,-4.26 5.45,-9.25l3.43 0.61c6.58,-4.62 5.75,-2.96 10.11,-2.27 1.55,-2.01 0.9,-4.6 2.77,-6.08 2.17,-1.71 4.88,-0.85 7.76,-0.86 7.38,-0.01 3.08,-8.3 1.74,-11.83 -2.52,-6.69 2.62,-4.37 -5.79,-12.53 -3.59,-3.49 -7.72,-5.78 -4.62,-11.09 2.66,0.84 3.19,2.97 7.96,0.9 1.76,-0.77 4.47,-3.47 5.26,-5.02l-4 -0.19c0.4,-3.44 1.04,-4.44 -2.76,-3.31 -3.48,1.02 -2.47,0.3 -4.79,-1.69 -3.28,-2.8 -7.38,-1.01 -10.04,-5.81l3.68 -0.17 1.5 -2.47c-0.64,-0.68 -3.57,-2.55 -4.52,-3.21 -0.87,-0.6 -4.85,-2.34 -5.05,-3.13 -0.87,-3.45 0.96,-6.25 1.04,-7.07 0.06,-0.69 0.02,-0.55 -0.11,-0.88 -2.04,-2.28 0.43,1.29 -1.91,-0.81 -1.85,-1.66 -0.56,-0.76 -0.86,-2.26 -1.13,-0.21 -1.26,0.87 -1.55,-0.34 -0.01,-0.02 -0.01,-0.13 -0.01,-0.16 0,-0.03 0.01,-0.14 0.01,-0.17 -0.15,-2.04 -5.58,-7.68 -7.18,-9.3 -2.26,-2.27 -6.53,-5.96 -10.63,-5.76 -2.05,0.1 -1.1,2.18 -0.78,3.93 -2.48,-0.5 -3.8,-1.26 -5.94,-2.26 -3.71,-1.75 -3.29,-0.17 -5.73,-0.53 -1.9,-0.27 -4.16,-1.34 -5.58,-2.15 -2.63,-1.5 -2.85,-1.17 -5.79,-1.98 1.16,-2.39 2.27,-3.67 3.09,-6.76 0.67,-2.49 0.33,-7.3 1.96,-8.53 1.78,-1.34 6.9,-0.94 9.58,-0.94 3.64,0 7.1,-0.29 10.31,-0.29 0.23,-0.84 0.74,-1.92 1.19,-2.61l6.51 0c0.26,2.43 0.22,3.82 1.47,5.47 1.59,-0.48 3.84,-1.08 5.8,-1.43 1.92,-0.34 4.76,-0.67 6.5,-1.29 -0.18,-0.4 -0.64,-1.6 -0.84,-2.34 -0.73,2.17 -2.35,-0.63 -3.43,-1.1 -0.16,-0.07 -0.68,-0.24 -0.68,-0.24 -0.98,-0.53 0.09,0.81 -0.54,-0.44l0 -3.51c1.61,-2.07 5.79,-2.47 8.12,-1.31 2.86,1.42 3.46,2.33 6.88,3.46 2.42,-2.14 2.78,-5.31 1.7,-7.95 3.13,0.11 3.15,1.47 4.72,1.97 0.69,0.21 0.05,0.08 0.58,-0.02l0.55 -0.21c0.02,0.09 0,0.14 0,0.26l0.19 1.25c0.7,2.81 -0.73,1.78 -1.89,5.3 -1,3.05 -1.44,4.95 -2.67,7.82 -1.31,3.03 -2.16,4.74 -0.58,7.86 0.59,1.17 1.4,2.39 2.09,3.37 1.09,1.54 1.41,1.68 2.88,2.56 3.36,2.02 2.99,2.86 5.34,5.19 0.85,0.85 1.59,1.55 2.92,2.13 0.67,0.3 1.41,0.53 2,0.8l2.01 0.58c1.19,0.31 0.34,0.69 0.34,0.69 -0.18,0.74 -0.72,-0.54 0.93,1.99 1.89,2.9 3.73,5.36 7.84,6.16 0,-4.76 1.62,-7.5 1.72,-10 0.07,-1.74 -0.39,-2.91 -0.11,-5.26 0.37,-3.04 -0.05,-2.58 -1.18,-4.6 -2.63,-4.65 0,-6.47 -12.66,-11.47 -0.28,-4.52 -0.17,-4.76 1.23,-8.21 1.33,0.49 2.44,1.3 3.69,1.78 2.3,0.88 0.66,-0.64 4.04,-0.79 3.54,-0.15 7.44,1.53 9.88,1.44 0.72,-4.49 -2.39,-3.56 4.59,-9.06 4.03,-3.17 5.84,-1.16 10.78,-0.39l-0.01 -4.17c-2.65,-0.39 -6.18,-1.53 -8.44,-2.48 -3.48,-1.46 -3.88,-2.36 -3.85,-6.93 9.43,1.01 15.41,4.05 27.05,4.05 -0.05,-1.13 -0.96,-1.98 -1.85,-2.78 1.08,-2.79 1.66,-0.81 2.2,-5.72 -3.33,-0.13 -11.23,-1.66 -15.39,-2.17 -5.48,-0.66 -10.3,-1.24 -15.4,-2.58l-27.13 -7.19c-0.81,-0.34 -0.49,-0.24 -0.76,-0.42 1.56,-3.03 4.01,-2.72 5.07,-6.6l-11.01 -0.1 0 4.24c-6.35,1.48 -8.82,-0.29 -15.04,-0.15 -5.59,0.13 -9.11,2.38 -14.31,3.07 -11.48,1.53 -19.48,-3.92 -29.71,-4.49 -5.84,-0.33 -10.75,1.16 -16.32,-0.68 -4.52,-1.48 -7.88,-3.71 -12.95,-4.59 -5.03,-0.88 -18.96,-0.64 -22.49,-3.61 -4.1,-3.44 -2.97,-1.75 -5.43,-3.45l2.33 -2.61c-6.68,-3.54 -16.91,-4.13 -25.86,-4.13 0.61,3.67 3.84,5.8 7.03,6.8 5.39,1.7 6.94,0.78 12.31,0.23 0.46,1.52 0.63,2.66 1.04,4.32 0.54,2.13 1.49,1.92 2.38,3.56 -2.19,0.06 -3.28,-0.38 -5.14,-0.28 -1.82,0.1 -2.15,0.81 -4.33,0.92 -3.93,0.18 -6.23,-1.62 -9.17,-1.66l0.44 2.64c-0.1,2.46 -5.83,-1.7 -6.95,-2.64 -2.62,-2.2 -2.83,-2.9 -6.93,-3.99 -4.73,-1.26 -13.86,-3.16 -19.18,-3.16 0.48,1.67 1.34,1.22 0.03,2.17 -1.29,0.93 -17.83,1.47 -21.5,0.37 -6.72,-2 -8.23,-7.89 -15.86,-10.63 -9.84,-3.53 -19.92,0.99 -31.97,-7.39 -1.88,-1.31 -6.91,-3.6 -9.43,-3.41l-0.03 7.84 9.26 0.23c-6.11,7.89 -12.23,1.77 -24.25,5.35 -5.45,1.62 -7.86,5.65 -13.06,6.8 -3.21,0.7 -4.72,1.62 -7.51,2.61 -3.67,1.3 -8.76,0.92 -12.29,2.96 -3.01,1.74 0.12,0.1 -0.99,2.45l-1.16 -0.13c-0.8,0.05 -1.13,1.21 -2.53,-0.92 -0.89,-1.36 -2.02,-3.31 -3.3,-4.47 -1.95,-1.76 -5.64,-0.96 -8.62,-0.87 -0.93,0.86 -3.67,4.95 -3.96,6.24 -0.19,0.84 1.12,5.83 0.96,8.67 -7.14,-0.27 -16.13,-5.77 -22.99,-4.16 0.3,3.61 4.21,3.02 5.12,6.77 -5.75,-1.3 -28.02,-2.73 -31.32,5.6l-2.74 -0.04c-2.65,-4.41 -2.67,-6.43 -13.47,-6.7 0.81,1.12 1.72,2.34 2.48,3.32 1.04,1.36 1.77,2.11 1.2,4.51 -4.34,2.38 -4.88,-2.06 -8.21,-3.72 -3.68,-1.83 -15.15,-5.51 -19.43,-6.68 -6.12,-1.67 -6.92,-0.35 -11.97,-0.43l1.28 -4c-5.61,-0.03 -8.01,-1.21 -13.42,-1.21 -5.78,0.01 -7.76,0.66 -12.73,1.85l-17.39 4.03c-8.57,2.13 -3.34,2.64 -4.56,6.36 -0.98,2.97 -11.19,14.54 -15.45,15.71 -3.85,1.06 -3.75,1.94 -7.03,5.42 -2.2,2.33 -7,0.76 -7.17,5.34 -0.09,2.27 1.3,8.23 1.73,10.84 0.39,2.44 0.2,2.9 3.21,2.56 8.62,-0.97 11.04,-4.58 15.27,-3.95 0.28,2.52 1.84,5.47 2.81,7.74 1.08,2.53 2.25,5.23 2.46,8.45 1.79,0.33 3.75,0.08 5.57,0.06 0.21,-7.23 1.24,-3.54 3.95,-5.16 2.56,-1.54 4.7,-5.67 5.98,-8.43l1.77 -3.33c0.93,-2.52 -0.44,-6.17 -1.43,-7.96 -0.99,-1.77 -1.12,-5.75 1.4,-6.83 1.35,-0.59 2.11,-0.17 3.23,-1.45 1.24,-1.44 0.38,-1.81 2.37,-2.7 1.14,-0.52 2.08,-0.64 3.19,-1.47 2.63,-2.01 -0.01,-4.17 4.85,-4.91 1.45,-0.23 3.02,-0.23 4.8,-0.13 -1.95,4.43 -0.37,3.5 -4.25,6.53 -2.08,1.62 -4.03,2.66 -6.52,4.34 1.17,3.46 2.33,3.59 2.06,7.95 11.78,6.51 6.21,2.6 8.73,13.85 -10.01,-4.68 -9.62,-3.07 -9.62,8.59 -2.22,0.65 -5.87,3.87 -7.27,3.61 -1.93,-0.35 -1.87,-1.1 -4.85,-0.51 -1.77,0.35 -2.77,1.03 -4.7,1.24 -4.31,0.48 -7.55,-1.52 -9.86,-0.95 -2.79,0.69 -5.97,1.15 -8.7,-1.09 1.39,-3.29 3.41,-4.98 5.13,-7.79 -1.91,-2.28 -1.62,-0.27 -2.67,-4.17 -4.92,-0.04 -3.43,-0.63 -4.82,1.57 -0.87,1.38 -3.04,1.68 -4.73,2.28 -0.01,5.19 2.57,4.42 2.62,9.28 -0.2,0.87 -14.52,7.39 -17.17,10.07 -1.12,1.14 -1.93,2.17 -3.53,3.07 -2.96,1.66 -1.85,1.6 -3.67,3.36 -0.95,0.93 -3.4,1.23 -4.81,2.2 -1.57,1.08 -2.57,2.46 -4.74,0.77 0.51,-1.23 1.77,-2.14 3.2,-2.69 4.74,-1.84 4.6,-0.19 6.02,-5.65 0.43,-1.66 1.87,-2.6 2.92,-3.32 -1.39,-1.47 -2.36,-2.04 -4.3,-3.13 -3.1,-1.76 -2.22,-0.6 -3.44,-3.97 -2.04,-5.65 -3.66,-4.77 -7.32,-7.34 0.44,-1.68 2.46,-4.93 2.54,-5.87 0.13,-1.54 -2.01,-4.69 -2.55,-6.21 -3.68,0 -6.64,-0.03 -8.74,1.92 -3.58,3.34 -3.89,11.84 -0.74,15.61 2.41,2.87 5.12,0.99 7.76,3.12 -3.4,4.92 -4.37,0.32 -7.31,6.29 -1.46,2.98 -1.12,2.33 -1.14,5.43 -0.02,1.98 -1.46,2.67 -2.08,4.55 2.15,0.01 3.61,0.49 5.75,0.24 1.65,-0.19 3.68,-1.25 5.1,-1.22 0.87,2.24 0.64,4.1 1.23,6.48 -3.67,0.27 -8.39,-0.7 -10.68,1.6 1.62,3.24 7.94,5.82 11.88,7.85 0.31,4.7 -1.44,10.09 -2.57,14.06 -5.35,0 -19.53,-2.29 -22.62,-0.74 -1.41,0.71 -1.12,0.89 -2.06,1.81l-2.57 1.73c0.08,2.61 2.58,7.85 0.66,10.38 -4.27,5.6 -3.35,4.93 -1.74,9.06 0.96,2.47 0.54,5.04 0.91,7.95 2.76,-0.01 5.69,-0.7 8.15,-1.39 2.05,7.03 0.24,11.16 -5.98,14.94 -2.42,1.47 -4.78,2.72 -6.12,5.18 -2.24,4.12 -0.66,5.26 -1.58,9.69 -1.4,6.79 -11.02,7.07 -12.63,9.99 -1.07,1.92 -0.42,2.15 -2.06,3.4 -2.59,1.96 -0.65,1.77 -2.17,3.66 -0.9,1.11 -2.07,1.25 -2.84,3.01 -0.66,1.52 -0.48,3.07 -0.98,4.98 -0.58,0.5 -2.2,1.36 -2.67,1.87 -1.79,1.91 -0.23,3.21 -3.71,5.65 -1.07,0.76 -1.78,1.47 -2.91,2.14 -0.4,5.8 0.88,12.94 1.46,18.62 0.46,4.4 0.77,13.22 -4.27,15.47 0.51,1.65 1.1,1.94 1.82,3.65 0.76,1.81 0.43,2.47 0.76,4.65 1.12,7.49 9.11,8.59 12.88,19.87 2.2,6.61 3.93,9.44 10.35,11.46 3.01,0.95 2.92,3.69 6.01,4.88 1.59,0.61 2.98,0.63 3.94,1.53 1.28,1.21 0.87,1.84 2.94,2.68 3.55,-1.06 1.68,-2.67 5.54,-3.58 2.04,-0.48 5.96,-1.17 8.05,-1.1 7.55,0.26 2.37,5 14.16,-0.07 4.08,-1.76 9.12,-4.37 14.31,-4.31 7.43,0.1 7.67,4.6 9.96,8.68 10.86,-1.86 8.77,-0.55 14.86,1.42l0 8.34c2.58,0.47 1.44,0.36 4.03,0.16 0.43,0.99 0.73,1.38 1.14,2.36 -2.77,1.68 -2.28,-0.76 -4.1,1.7 -0.96,1.31 -1.38,2.56 -1.76,4.07 -0.03,0.1 -0.06,0.22 -0.09,0.31 -0.45,1.62 -2.16,1.42 -3.25,2.49 1.12,3.77 2.35,6.41 4.47,9.81 2.14,3.41 8.05,8.86 9.69,11.73 1.22,2.15 4.89,13.76 3.53,16.18l-0.67 0.95c0.9,1.81 1.62,4.42 2.39,6.44 3.09,8.07 -1.08,6.08 -5.65,20.21 -2.79,8.64 -0.57,14.31 4.08,21.09 4.57,6.66 6.14,12.5 6.68,21.1 0.38,6.13 0.39,10.81 4.14,14.43 2.4,2.32 1.71,3.04 2.96,6.39 1.67,4.49 4.41,9.14 4.64,14.22 0.11,2.48 0.28,5.93 0.95,8.18 2.93,2.37 4.04,-0.94 4.04,3.92 3.79,0.63 6.76,-2.06 9.5,-3.3 7.2,-3.29 10.76,3.58 20.07,-1.74 3.79,-2.17 6.74,-3.42 8.29,-7.29 1.27,-3.21 2.74,-1.55 4.69,-4.66 1.03,-1.65 0.68,-2.79 2,-4.23 9.62,-10.55 7.75,-8 8.86,-22.33 4.49,-2.68 13.71,-1.19 11.51,-15.16 -2.47,-15.65 0.31,-9.47 4.14,-14.72 1.06,-1.45 1.7,-2.91 2.33,-4.69 11.28,-0.12 15.75,-8.74 15.66,-20.06 -0.04,-4.33 -1.07,-11.56 -2.73,-15.07 -1.81,-3.82 -2.7,-1.82 -1.28,-5.78 0.61,-1.71 1.81,-5.33 1.74,-7.19 -1.35,-0.76 -3.17,-1.87 -3.9,-3.11 0.25,-4.99 2.51,-7.82 4.53,-11.49 0.38,-0.7 2.42,-5.61 2.51,-5.7 1.92,-2.12 2.76,0.65 6.32,-5.73 1.3,-2.32 7.7,-10.49 9.52,-11.17 4.86,-1.84 1.75,-1.06 4.53,-3.6 2.16,-1.98 0.22,1.38 4.16,-3.63 7,-8.89 18.14,-34.17 16.58,-40.25 -2.31,-0.8 -6.06,1.74 -8.22,2.62 -2.26,0.91 -17.68,4.15 -19.44,3.64 -3.1,-0.89 -1.7,-2.97 -7.79,-3.93 0.94,-3.76 5.11,-4.25 8.42,-4.9 3.68,-0.72 7.44,-2.09 11.53,-2.09 1.62,-2.81 3.24,-3.53 6.18,-5.09l14.04 -8.54c3.8,-2.58 4.5,-1.96 7.57,-3.76 6.66,-3.9 7.73,-3.46 11.97,-10.62 1.75,-2.96 6.62,-12.46 7.14,-15.86 -1.46,-0.85 -3.36,-2.13 -4.82,-2.98 -1.69,-0.97 -3.02,-2.07 -4.88,-2.94 -4.56,-2.14 -4.39,-6.35 -8.28,-7.64 -1.93,1.58 -4.29,5.13 -5.98,5.98 -2.44,1.22 -7.19,2.07 -9.93,1.29 0.56,-2.14 3.01,-1.45 2.64,-4.51 -0.22,-1.78 -1.54,-3.75 -3.05,-4.23 -2.14,0.54 -2.09,1.41 -3.9,2.55 -1.01,-1.67 -0.47,-3.63 -2.23,-5.16 -1.8,-1.56 -2.74,-1.09 -3.69,-3.69 -1.62,-4.45 -3.56,-5.69 -9.25,-6.01l-0.1 -2.25c1.25,-0.78 3.74,-0.39 5.16,-1.13 0.6,-0.32 1.06,-0.86 1.89,-1.25 0.77,-0.36 1.86,-0.63 2.84,-0.82 1.44,1.93 3.46,4.59 4.68,7.02 1.57,3.15 2.31,4.78 5.91,6.18 4.37,1.7 4.21,7.29 11.62,5.23 1.11,-0.3 3.87,-1.63 4.42,-1.72 2.48,-0.39 1.21,2.41 7.02,4.18 10.73,3.29 21.98,2.44 33.52,2.44 2.46,5.98 4.22,6.28 9.22,9.72 2.07,1.42 1.48,1.71 2.66,3.98 1.04,2 2.29,1.65 3.11,3.12 0.99,1.79 0.66,3.4 2.59,4.07 3.05,1.07 6.22,-4.18 8.44,-3.79 0.32,3.81 0.31,6.55 0.9,9.98 0.54,3.15 0.84,6.38 1.39,9.49 0.9,5.13 3.36,4.05 4.56,6.38l8.74 24.43c0.75,2.78 1,3.5 3.11,5.05 0.72,0.54 0.86,0.86 1.47,0.99l0.57 -0.02c0.24,0.02 -0.07,-1.17 0.51,0.2 0.36,0.87 -0.56,0.11 -0.23,0.96 0.27,0.72 2.33,1.9 3.36,2.29 0.66,-0.62 4.5,-6.76 6.99,-9.37z"/>
   <path class="fil1" d="M403.18 3.52l-22.2 0c-5.28,0 -12.84,1.04 -18.25,1.54 -6.28,0.59 -12.24,0.91 -18.84,1.14l-1.12 3.89c-4.91,-1.42 -9.65,-7.53 -17.85,3.61 -1.95,2.64 -2.55,3.88 -5.88,3.88 -3.68,0 -13.6,-3.24 -25.71,-3.22 0.4,8.59 4.4,3.88 8.17,5.89 -0.6,1.9 -3.05,0.91 -4.88,1.33 -1.89,0.43 -3.01,1.57 -5.24,1.57 -1.67,0 -4.34,-2.6 -8.02,-1.59 -1.16,7.4 -0.98,10.82 11.38,7.56 5.26,-1.38 7.77,-5.88 13.53,-7.73 0.74,4.65 1.09,4.85 5.19,6.65 -0.73,1.19 -3,2.36 -4.87,2.78 -5.62,1.26 -6.33,0.27 -12.08,3.89 -2.02,1.28 -3.16,2.26 -5.66,2.8 0.91,-2.62 3.11,-2.54 3.65,-6.74 -3.77,0 -8.42,-0.43 -11.44,0.61 -4.01,1.37 -3.36,3.11 -8.94,3.55l-0.11 4.55c2.98,1.61 5.51,2.21 9.16,2.51 -1.86,2.8 -1.75,1.69 -1.34,5.33 0.19,1.69 0.03,0.75 -0.35,1.8 -0.03,0.08 -0.19,0.04 -0.23,0.03 -0.67,-0.08 0.04,0.16 -0.69,-0.16 -2.56,-1.1 -2.57,-2.4 -5.93,-2.4 -1.42,0 -1.95,0.51 -3.68,0.59l-1.49 -2.65 -3.68 -0.06c0.01,-10.48 0.36,-6.12 4.56,-8.63 0.97,-0.59 1.65,-1.33 2.18,-2.24 -9.04,-5.47 -5.34,0.1 -12.68,1.04 -2.63,0.33 -5.51,-0.1 -8.52,-0.42 -3.59,-0.38 -4.65,0.44 -7.74,-1.6 -10.16,-6.7 -19.42,-3.19 -28.7,2.28 -2.36,1.39 -4.59,1.82 -6.75,2.95 2.12,5.5 -0.63,5.23 6.12,5.23 4.08,0 7.18,-3.23 11.39,-3.81 -0.44,1.23 -0.7,1.77 -1.17,2.89 -1.01,2.43 0.21,6.48 -5.93,6.48 -4.79,0 -6.44,-4.33 -13.72,-2.72 -11.94,2.65 -7.28,-2.85 -12.83,-2.03 -5.65,0.85 -26.24,5.34 -30.72,5.34 -4.85,0 -12.11,-4.81 -22.6,-4.98 -4.14,-0.07 -14.17,-0.26 -17.69,-2.41 -1.41,-0.85 -0.75,-1.02 -2.54,-1.09 -6.07,-0.24 -29.65,7.86 -35.98,8.66 -3.89,0.49 -8.79,0.39 -10.67,3.17 0.67,2.14 1.53,0.79 1.97,3.64 -5.14,3.79 -16.62,4.13 -23.21,5.65 -0.02,1.57 0.38,1.97 0.35,3.15 -0.02,0.94 -0.45,1.88 -0.55,2.97 1.88,0.06 3.56,0.55 5.04,0.85 1.64,0.33 3.44,0.18 5.27,0.48 -2.53,3.8 -11.57,3.1 -18.32,5.74 -4.52,1.77 -7.96,3.26 -10.44,7.48 -1.26,2.15 -0.36,2.64 0.34,4.49l3.87 0c-0.46,2.38 -2.18,2.09 -2.27,5.57l9.09 0.01c-1.22,2.1 -7.53,4.38 -9.76,5.2 -8.02,2.93 -25.61,8.09 -31.86,12.66 4.05,-0.06 10.82,-1.71 14.66,-2.61 4.59,-1.07 9.13,-2.23 13.77,-3.73 2.23,-0.72 4.36,-1.38 6.3,-2.28 1.97,-0.92 3.58,-2.16 5.85,-3.11 8.5,-3.54 14.53,2.58 19.44,-6.65 1.66,-3.12 1.98,-2.38 5.91,-3.09 21.65,-3.93 13.1,-4.32 19.67,-6.38 3.22,-1 4.19,0.53 6.05,2.04 4.51,3.66 9.03,2.31 14.73,2.41 2.28,7.45 4.98,3.35 5.42,9.52 -0.76,0.54 -1.67,0.66 -2.17,1.49 -2.02,3.35 0.57,11.98 1.03,15.96 0.28,2.35 1.25,3.34 2.61,4.93 -2.48,0.96 -2.17,1.08 -2.64,3.81l-2.5 0c-0.38,1.88 0.31,4.57 1.04,5.89 1.17,2.11 1.96,1.52 4.03,2.59 -0.52,3.07 -2.33,4.54 -3.3,7.58 -0.94,2.96 -1.39,5.36 -3.21,7.7 -1.86,2.42 -3.77,2.82 -5.03,5.87 -1.75,4.25 -2.63,3.14 -5.11,6.18 -1.71,2.1 -5.49,12.9 -5.97,16.18 -1.37,9.34 2.64,12.76 3.29,18.55 -1.57,1.09 -1.68,0.37 -2.51,2.28 7.27,2.91 9.03,2.36 9.65,11.21 0.25,3.53 0.34,6.79 0.57,10.09 0.22,3.02 0.17,2.35 1.73,3.71 1.14,0.99 1.33,2.28 1.75,3.86l-2.35 0.5 -0.28 2.09c1.45,1.49 5.89,4.63 8.09,5.43 -0.33,3.3 -1.46,4.26 -2.45,7.04 1.41,1.32 3.73,2.01 5.13,3.15 1.66,1.36 1.19,4.02 1.74,6.4 2.34,0 2.41,0.02 4.19,-0.46 0.77,-3.81 -4.42,-19.73 -6.89,-24.07 -3.79,-6.63 -3.07,-2.91 -3.07,-13.84 0,-1.16 -0.02,-0.47 0.32,-1.38l3.69 -0.12c1.14,10.48 4.17,15.96 7.83,24.47 1.32,3.08 4.55,4.98 7.02,8.96 9.19,14.77 5.07,9.48 1.65,15.98 1.47,2.53 3.85,5.51 5.93,7.6 2.7,2.69 5.42,3.17 8.93,5.1 5.1,2.81 13.9,8.24 20.1,8.24 6.1,0 5.92,-5.19 12.97,3.47 4.35,5.35 4.4,5.53 12.12,7.77 10.82,3.15 6.67,1.71 9.36,5.04 0.84,1.04 2.02,1.53 2.81,2.25 1.86,1.68 1.02,5.16 2.06,7.71 1.13,2.76 4.23,1.65 6.74,3.35l0.25 4.69c2.98,0.01 5.07,0.86 7.53,1.92 2.93,1.28 4.02,1.43 7.27,2.11l-1.27 -5.36c3.58,-0.43 5.48,-0.24 7.85,3.07 0.99,1.39 1.51,3.75 1.65,5.76 0.46,7.09 -1.16,7.22 2.95,11.76 -0.45,1.05 -0.61,2.49 -1.57,3.64 -0.85,1.01 -2.03,1.46 -3.05,2.38 -3.75,3.37 -6.84,7.79 -9.38,12.43 -1.94,3.53 -2.49,3.28 -2.39,8.14 1.41,0.92 1.49,0.82 2.55,2.14 -0.79,5.48 -4.42,10.45 -1.32,16.47 1.33,2.58 2.61,3.62 4.1,5.65 1.73,2.33 3.78,2.69 4.64,5.5 1.51,4.92 4.33,9.16 6.4,13.45 2.14,4.43 3.81,9.56 7.05,12.82 3.65,3.68 5.04,6.59 10.73,9.13 6.1,2.72 7.96,3.47 10.78,9.09 3.66,7.28 3.62,16.58 5.25,24.75 3.35,16.87 -0.68,12.39 -0.68,19.2 0,2.65 1.67,5.05 2.31,7.38l-2.31 0c1.06,10.31 9.8,8.28 3.7,29.28 -1.98,6.82 -0.13,4.13 1.78,9.83 2.63,7.87 0.96,8.07 6.23,14.81 1.71,2.19 1.51,2.32 1.48,4.98l-3.8 0.34c0.41,1.8 0.38,2.95 0.87,4.68 1.29,4.52 1.67,5.67 -0.59,10.01l6.34 0.23c0.6,6.37 -6.37,4.97 2.15,13.42 1.96,1.95 2.86,3.37 4.28,5.85 1.33,2.33 2.66,3.86 4.37,5.62 1.4,-0.2 6.16,-2.71 4.21,2.7 -0.6,1.66 -1.11,1.26 -1.32,3.04 1.05,0.79 14.17,4.55 16.91,5.36 6.09,1.82 11.74,2.94 16.16,-2.63 -0.55,-0.49 -7.31,-2.35 -13.04,-6.34 -1.22,-0.85 -3.02,-1.49 -4.31,-2.2l1.06 -0.86c0.99,-0.96 2.13,-2.23 2.54,-3.47 -3.15,-0.44 -7.46,-2.51 -6.53,-6.21 0.82,-1.51 1.43,-1.11 2.07,-2.32 0.51,-0.95 0.68,-2.63 1.1,-3.61 1.02,-2.38 2.63,-3.68 3.55,-5.72 -1.53,-0.71 -2.73,-1.83 -4.18,-2.43 -1.83,-0.76 -3.62,-0.92 -5.33,-1.68l0.31 -5.29c1.4,-0.81 3.61,-0.92 5.1,-1.16 0.13,-10.63 -2.22,-6.56 4.12,-8.52 -0.02,-2.29 -0.56,-4.44 -1.45,-5.97 -4.6,-0.74 -2.26,1.56 -6.67,-1.86 2.93,-2.04 8.8,-1.16 8.42,-6.23 -0.54,-7.03 -0.48,-1.68 10.97,-7.06 3.99,-1.87 5.14,-4.88 5.14,-10.08l-0.92 -0.67c-0.32,-0.22 -0.49,-0.22 -0.88,-0.66 -1.29,-1.47 0.33,-0.83 -1.45,-2.1 -1.7,-1.22 -3.27,-0.98 -3.49,-3.74 8.07,1.97 7.07,3.82 13.41,-0.54 4.64,-3.19 2.99,-7.26 10.08,-14.46 2.43,-2.46 1.96,-4.68 2.79,-8.44l3.75 -0.96c0.67,-5.28 -1.88,-11.67 0.24,-16.62l0.56 -1.83c0,-0.03 0,-0.16 0.01,-0.19l0.25 -0.41c1.05,-0.53 -0.27,-0.11 0.43,0.07 0.92,0.24 -0.16,0.56 3.43,-1.82 2.86,-1.89 7.18,-5.18 10.24,-6.51 4.83,-2.1 7.55,-0.29 11.16,-5.61 2,-2.95 4.74,-7.75 5.35,-11.32 1.22,-7.21 -1.77,-27.32 2.53,-31.04 5.77,-4.98 11.67,-14.49 11.67,-22.46 0,-6.17 -3.48,-10.15 -8.2,-11.88 -2.34,-0.85 -1.58,-0.1 -2.91,-2.19 -2.4,-3.79 -3.92,-2.27 -5.92,-4.22 -1.18,-1.14 -0.73,-2.57 -2.69,-2.57 -0.86,0 -4.11,0.88 -6.62,0.88 -1.04,0 -8.36,-2.42 -9.44,-2.91l-17.19 -8.52c-3.54,-1.7 -7.32,0.61 -10.62,0.97 0,-2.7 -0.23,-2.36 1.41,-3.82 1.02,-0.89 1.96,-1.55 2.96,-2.74 -0.99,-3.42 -2.46,-4.74 -3.81,-8.1 -2.29,-5.72 -0.23,-4.9 -5.17,-6.92 -2.27,-0.92 -3.63,-4.04 -6.21,-5.47 -4.31,-2.39 -5.31,-1.32 -9.97,-1.45 -11.92,-0.36 -4.8,-8.02 -12.37,-11.26 -4.82,-2.06 -9.85,-9.56 -14.51,-9.56 -7.82,0 -10.94,3.45 -19.94,-1.97 -2.62,-1.58 -0.33,-1.94 -5.24,-2.15 -0.49,-1.17 -0.84,-1.51 -1.19,-2.62 -3.78,0.94 -2.87,2.98 -6.78,3.96 0.93,-3.37 2.27,-1.65 2.54,-6.67 -7.34,1.07 -5.98,6.81 -19.11,6.81 -1.14,5.5 1.58,6.37 -3.82,11.71 -0.33,0.33 -0.33,0.29 -0.61,0.51 -5.73,-1.83 -6.15,-5.48 -10.13,-5.48 -3.07,0 -7.29,2.49 -10.23,2.64 -2.44,0.12 -4.97,-5.28 -5.8,-7.16 -1.8,-4.08 3.15,-6.54 3.15,-21.52 -2.68,-0.48 -8.49,-2.68 -10.49,-2.68l-11.49 0c0.01,-7.96 3.12,-5.63 7.46,-12.98 1.58,-2.67 5.87,-9.76 6,-13.1 -7.04,0 -10.62,1.82 -16.39,2.64 -0.75,5.28 -5.4,11.72 -11.68,11.72l-2.34 0c-7.59,0 -11.48,-9.81 -11.48,-17.88 0,-4.51 2.42,-10.34 3.39,-14.67 1.54,-6.83 1.64,-8.17 7.01,-11.33 12.94,-7.6 15.45,-0.69 28.64,-0.66l-0.98 -5.45c4.64,-1.28 9.65,-2.74 13.59,0.5 3.27,2.69 0.46,0.96 6.96,0.82l1.46 0.1c0.03,6.2 -0.5,12.62 2.34,17.16 1.31,2.08 2.47,4.16 5.23,2.31 6.78,-4.56 1.71,-16.74 3.74,-25.52 0.93,-4.07 3.53,-6.19 6.11,-8.25 5.24,-4.19 13.27,-6.31 18.54,-10.29 4.68,-3.54 -0.44,-6.77 2.63,-11.03 0.89,-1.25 2.59,-1.13 4.01,-2.98 2.92,-3.82 6.72,-8.67 11.55,-10.25 3.66,-1.2 9.93,-3.38 12.96,-3.38 0,-8.44 -0.79,-10.47 8.75,-11.91 2.86,-0.43 6.39,-1.31 7.64,-4.06 1.05,-2.31 0.34,-2.12 5.23,-1.83 -3.99,3.62 -5,2.84 -5.21,9.23 4.63,0.24 12.06,-5.69 20.45,-8.75 4.75,-1.74 7.42,-2.58 5.48,-8.67 -5.56,5.98 -6.44,4.01 -14.63,4.01 -0.44,-2.61 0.79,-3.02 -0.16,-8.5l5.21 0 -1.04 -5.2c3.96,2.74 3.04,0.72 5.06,5.48l5.65 -0.12c-0.43,-4.61 -3.63,-5.05 -5.08,-8.31l13.57 -0.06c0.46,-0.75 0.89,-1.39 1.51,-2.4 1.5,-2.46 3.11,-1.5 5.65,-2.09 1.32,-0.31 2.18,-0.59 3.37,-0.77l-9.77 11.45c-1.22,1.13 -3.65,1.42 -5.49,1.91l-0.72 3.2c4.53,1.1 8.19,1.39 12.72,2.33 8.5,1.76 4.65,1.63 10.37,4.19 0.84,-1.27 2.47,-6.94 2.36,-8.77 -0.12,-1.81 -0.78,-4.5 0.52,-6l-6.84 -0.15c-0.79,-6.94 -0.65,-3.76 2.32,-8.74 1.66,-2.78 3.04,-6.13 1.55,-9.55 -1.69,-3.87 -6.87,-5.85 -9.7,-9.02 -1.59,-1.79 -0.16,-2.64 -0.16,-6.66 0,-3.37 -2.74,-9.69 -3.72,-12.79l-3.99 -0.09c-0.72,2.57 -2.6,4.11 -4.4,5.64 -2.02,1.71 -4.78,2.55 -8.1,2.56 0,-4.19 1.15,-6.72 1.42,-10.51 -1.66,-0.97 -5.74,-2.53 -7.84,-3.54 -10.07,-4.82 -17.64,-4.6 -21.51,7.38 -0.18,0.55 -0.35,1.17 -0.59,1.8l-0.87 2.28c-0.04,0.67 0.65,-0.75 -0.01,0.52 -0.32,0.62 -0.39,0.02 -1.13,0.17 -1.7,0.34 -1.52,6.34 -2.06,8.11 -2.91,9.55 -13.39,4.5 -16.1,14.69 -1.15,4.3 -0.4,3.65 -2.39,8.09 -3.54,0.07 -5.79,-1.12 -7.79,-2.89 -0.06,-7.05 4.48,-4.81 5.21,-10.51 -1.8,-1.09 -5.4,-0.61 -13.83,-4.8 -2.26,-1.12 -4.06,-2.04 -6.23,-3.13 -2.48,-1.22 -4.68,-1.32 -7.01,-2.23l2.51 -5.02c-1.11,-1.07 -3.76,-1.8 -5.23,-2.86 3.55,-2.04 3.84,-1.38 6.51,-4.92 2.92,-3.87 3.27,-1.78 7.11,-4.57 2.6,-1.88 5.15,-2.74 8.79,-3.02 5.48,-0.42 4.47,-1.18 6.37,-5.55 4.94,0 9.93,-1.52 12.76,1.83 2.33,-0.26 5.17,-1.22 7.16,-1.41 2.96,-0.29 7.47,3.49 12.58,-0.54l-4.4 -4.8c-1.68,-1.21 -4.51,-2.88 -4.62,-4.74 7.72,-0.12 14.06,-0.06 16.57,-6.42 3.21,-8.13 7.16,-7.07 16.07,-7.07 -1.39,5.68 -1.5,5.18 -6.68,6.68 -0.08,1.63 0.23,3.02 0.82,4.17 0.92,1.82 1.35,1.27 2.35,2.83 -0.3,1.22 -0.59,1.5 -1.02,2.23 -6.75,1.19 -6.76,-3.76 -11.11,1.33 -1.24,1.44 -1.51,1.39 -2.18,3.06 6.41,3.55 16.36,-3.41 16.36,8.42l15.06 1.61 0.21 -2.78c2.32,0.53 4.56,2 7.23,1.05 2.73,-0.97 3.29,-4.35 3.29,-7.13 0,-2.6 -2.82,-4.28 -3.52,-7.54 3.38,1.02 4.64,3.29 6.73,5.05 2.98,-1.84 6.38,-3.69 7.98,-6.47 -0.52,-1.81 0.34,-0.19 -1.23,-1.56l1.35 -1.24c0.74,2.38 -0.74,2.9 2.75,2.52l0 -2.8 -2.92 -0.09c-1.38,-3.11 -4.21,-4.7 -7.72,-5.24l2.35 -2.3c0.76,-0.94 1.18,-1.94 1.31,-3.31 -1.75,-1.12 -1.9,-0.63 -3.38,-1.25 -1.6,-0.67 -1.09,-1.47 -2.19,-2.51l-5.84 -3.88c-2.09,-1.65 -2.48,-2.88 -5.24,-4.12 -2.33,-1.04 -5.77,-1.22 -7.5,-2.26 1.06,-2.28 2.12,-1.67 3.01,-3.27 1.18,-2.14 0.28,-2.25 3.22,-2.95 2.79,-0.67 7.95,-0.94 10.21,-2.31 2.3,-1.4 -0.05,-3.22 7.35,-5.09 2.4,-0.61 7.69,-2.23 9.98,-2.3 -0.59,1.15 -0.96,2.26 -1.04,3.84 0.92,0.6 1.45,0.89 2.37,1.27l-2.22 0.71 -0.25 2.37c2.64,0.93 3.42,1.94 6.7,2.43 5.67,0.83 11.77,-0.52 17.51,0.03 1.88,0.18 5.26,1.75 5.94,3.32 0,7.77 -2.53,4.91 -4.03,9.46l3.94 3.82c-4.05,0.73 -4.16,2.31 -6.61,3.78 1.11,3.8 1.8,1.68 3.77,3.28 -2.99,4.39 -5.86,9.54 -5.86,15.88 0,1.62 2.01,6.61 2.46,8.99 1.27,6.66 6.04,8.82 11.84,10.8 4.91,1.68 4.86,0.86 7.61,-1.96 2.4,-2.46 2.58,-5.73 3.95,-7.34 0.7,-0.83 5.19,-2.87 7.15,-4.12 5.35,-3.42 2.4,-4.59 4.73,-6.61 0.89,-0.77 2.6,-1.45 4,-1.83 6.87,-1.82 8,2.72 17.8,-4.78 1.31,-1 1.9,-1.23 3.08,-1.99 9.45,-6.07 7.08,-3.11 15.59,-4.6 5.46,-0.96 10.7,-2.69 15.33,-4.6 4.97,-2.04 6.74,-4.55 8.04,-9.46 0.39,-1.46 0.45,-1.99 1.57,-2.31l3.37 -0.62c4.3,-1.18 6.7,-4.79 5.71,-9.87 2.22,-0.97 3.94,-3.56 4.11,-6.04 0.21,-3.33 1.86,-4.35 4.58,-5.47 3.74,-1.56 11.44,-4.14 15.99,-4.14 1.25,-0.69 1.45,-1.44 2.28,-2.39l-1.61 -0.76c-5.37,-1.36 -10.8,-1.86 -16.17,-2.96 -18.69,-3.8 -13.32,-3.27 -32.02,-3.27 -10.82,0 -27.34,3.86 -39.73,3.81 -6.48,-0.02 -14.49,0.55 -20.99,-0.07l-21.09 -1.1z"/>
   <path class="fil1" d="M1055.23 429c-2.54,-8.79 -7.12,-6.9 -11.04,-8.56 -1.88,-7.67 -1.11,-3.57 0.04,-6.92 2.35,-6.82 3.74,-2.25 4.17,-9.36 -2.86,-0.49 -7.24,-2.44 -10.16,-3.51 -6.73,-2.48 -3.97,-2.02 -8.68,1.28 -2.27,1.59 -7.77,2.14 -8.55,5.11 -0.43,1.64 -0.29,3.86 -1.32,5.28 -0.61,0.85 -1.11,0.67 -1.96,1.59 -1.78,1.91 -0.17,-0.17 -0.01,1.97 -0.79,0.88 -2.29,1.66 -3.83,2.15 -0.72,-1.14 -1.31,-1.23 -1.87,-2.45 -1.28,-2.83 0.6,-4.14 -1.91,-4.2 -0.62,-0.01 -0.8,0.08 -1.29,0.19 -2.16,0.47 -5.2,2.04 -6.8,3.35l-5.95 7.14c-7.14,-0.78 -8.22,3.53 -12.43,10.71 -1.46,2.49 -0.94,1.34 -5.79,3.93 -1.06,0.56 -2.38,0.96 -3.71,1.33 -12.93,3.53 -6.5,-2.7 -20.28,8.56 -0.98,0.8 -1.58,1.38 -2.17,2.52 -1.63,3.18 -0.26,1.03 -2.25,2.64 0,6.78 -0.98,1.9 -2.17,6.16 -1.54,5.53 -2.42,5.9 -1.91,13.35 0.38,5.65 5.05,19.56 -1.15,26.43 -1.53,1.7 -3.05,3.18 -0.61,7.33 1.16,1.96 5,2.94 7.55,2.73 2.47,-0.21 5.03,-1.8 7.33,-3.16 10.3,-6.09 10.38,3.47 18.9,-5.64 2.57,-2.74 8.76,-3.06 12.46,-3.57 7.99,-1.09 21.7,-4.48 25.98,2.5 1.74,2.84 1.02,5.8 1.02,9.2 2.22,-1.52 2.91,-4.43 8.2,-4.82 -0.9,1.49 -0.23,1.86 -1.88,3.49 -1.35,1.34 -1.46,1.82 -2.11,4.05 1.99,-0.17 3.51,-1.7 5.41,-2.26 1.31,3.78 1.44,0.55 2.57,7.51 0.42,2.62 0.97,6.73 1.58,8.9 2.29,0 6.2,-0.21 7.99,-0.81 2.44,-0.82 3.88,-2.48 5.78,-3.29 0.67,2.71 1.98,4.56 4.22,6.54 0.05,0.04 0.16,0.14 0.25,0.2 1.17,-1.12 10.48,-5.24 12.87,-6.43 4.97,-2.48 7.87,-5.54 11.1,-8.77 1.77,-1.77 2.99,-2.98 4.77,-4.96 1.94,-2.15 2.3,-3.36 3.87,-5.86 1.32,-2.1 6.97,-4.63 10.1,-9.78 1.47,-2.43 1.54,-4.62 3.33,-6.4 6.54,-6.45 5.13,-15.35 2.82,-23.6 -3.09,-11.05 -4.69,-8.07 -6.35,-13.5 -0.52,-1.69 -1.52,-6.85 -2.01,-7.76 -0.86,-1.58 -4.91,-2.86 -6.58,-3.49 0,-10.13 -2.64,-8.82 -2.64,-20.44 -1.84,-1.46 -2.62,-1.54 -5.56,-1.54 0,-7.1 1.37,-14.81 -5.26,-16.37 -1.2,1.54 -4.04,15.02 -4.7,17.89 -2.34,10.16 -1.88,10.85 -9.38,13.42z"/>
   <path class="fil1" d="M1026.55 356.21c3.7,1.47 3.86,0.63 4.61,4.84 0.65,3.59 2.03,4.01 1.92,5.61 -0.11,1.69 2.67,0.81 5.06,0.81 1.83,0 2.51,0.82 3.63,1.64 3.07,2.22 8.37,3.45 12.28,3.69l1.91 9.25c-2.01,3.03 -1.95,1.37 -3.37,7.07 4.95,0.16 6.23,-3.2 11.93,0.47 1.1,0.71 2.1,1.96 3.1,2.41 3.61,1.64 3.89,-2.15 9.18,-5.94 1.18,-0.85 1.81,-1.6 3.02,-2.4 8.35,3.29 8.51,10.77 11.69,12.52 2,0 5.93,-0.22 7.71,0.06 1.53,0.25 3.85,1.91 5.46,2.51l-0.22 -5.49c-6.17,-1.03 -9.67,-6.56 -13.37,-9.2 1.06,-3.65 2.52,-3.1 2.52,-8.68 -2.22,-0.03 -3.98,-0.75 -5.36,-1.72 -1.78,-1.23 -2.01,-2.19 -3.28,-3.73 -1.06,-1.27 -2.19,-2.27 -3.91,-3.09 -4.85,-2.31 -1.88,-1.16 -4.45,-2.98 -2.35,-1.68 -7.55,-2.3 -10.76,-3.22 -4.9,-1.4 -11.61,-5.88 -15.8,-1.7 -0.47,0.47 -0.87,0.92 -1.1,1.67 -0.28,0.89 -0.18,0.41 -0.06,1.02 0.02,0.09 0.14,0.36 0.17,0.43l0.21 0.39c-1.19,0.73 -0.3,-0.02 -1.27,0.13 -4.91,0.74 -4.56,-1.02 -6.61,-5.17 -1.83,-3.72 -3.48,-7.01 -8.31,-7.72l-6.53 6.52z"/>
   <path class="fil1" d="M964.82 324.74c-0.47,2.46 0.4,2.28 -3.41,4.77 -1.85,1.2 -3.36,2.25 -5.08,3.49 -5.16,3.73 -6.64,3.29 -8.56,8.02l-5.2 -1.16c-0.99,5.13 -3.77,6.03 -2.27,11.91 1.22,4.81 3.07,2.48 3.89,11.6 3.36,0.18 8.29,1.8 11.39,2.01 4.26,0.28 4.18,-0.36 5.07,4.62 8.68,-2.41 9.84,-3.7 11.03,-9.88 0.54,-2.8 2.43,-9.66 4.38,-11.68 1.17,-1.21 2.31,-1.01 3.47,-1.95 -5.95,-4.52 -2.84,-5.37 -3.13,-8.03l-0.79 -7.02c3.42,-0.87 5.59,-2.68 6.65,-5.34 -3.92,-2.7 -4.61,0.42 -7.7,-4.31l-1.29 -1.82c-0.51,-0.51 -0.04,-0.12 -0.68,-0.56 -0.97,1.02 -2.12,2.27 -3.2,3.27 -1.14,1.03 -2.73,1.27 -4.57,2.06z"/>
   <path class="fil1" d="M678.82 464.76c15.59,0 15.56,-5.87 18.05,-14.91 2.26,-8.17 5.34,-16.34 7.58,-25.19 3.73,-14.78 0.72,-9.01 0.58,-18.77 -4.06,-0.13 -2.68,-0.81 -5.4,-1.5 -0.97,4.2 -4.96,11.15 -8.9,12.83 -4.75,2.01 -11.5,0.98 -11.49,10.82 0.01,9.17 2.45,8.35 -1.86,19.04 -3.73,9.25 0.47,13.14 1.44,17.68z"/>
   <path class="fil1" d="M980.97 275.75c-3.03,1.52 -2.52,-0.98 -2.52,9.08l3.74 0.83c1.47,3.58 0.06,4 9.73,6.34 8.6,2.08 5.87,1.49 5.87,9.24 -7.42,0 1.32,-3.55 -9.67,-5.27 0,9.87 1.58,5.82 2.38,9.13 0.44,1.82 -0.81,2.45 0.35,4.29 0.82,1.29 2.56,1.01 3.92,1.72 -4.37,3.48 -5.42,2.8 -5.48,9.27 4.72,-1.72 3.31,-2.34 9.67,-3.9l-1.22 6.91c12.41,2.68 15.43,-3.78 10.36,-12.93 -2.26,-4.08 -2.48,-2.41 -4.92,-5.12 5.96,-11.31 0.4,-11.58 -3,-13.45l-9.16 -5.64c-3.4,-2.05 -1.4,-4.79 -2.39,-12.36l-0.51 -5.16c-0.22,-2.19 -0.48,-1.8 -4.51,-1.78 -1.65,0.01 -3.31,0.01 -4.96,0.01 -0.71,3.33 1.34,6.54 2.32,8.79z"/>
   <path class="fil1" d="M989.84 343.15c-0.84,0 -6.44,1.83 -7.25,2.32 -0.18,4.38 0.28,6.8 -1.54,10.3 -1.07,2.07 -2.74,6.19 -2.89,8.78 1.01,2.03 1.85,0.71 2.55,4.43 0.33,1.79 0.14,5.26 0.79,6.63l3.5 0.07 0.21 -11.06c3.44,1.45 3.05,1.63 4.84,5.95 1.05,2.54 2.04,5.87 4.85,6.06 2.75,-4.41 0.98,-5.09 -0.23,-9.09 -0.65,-2.12 -2.31,-8.22 -2.45,-9.99 3.77,-1.3 0.67,-1.22 6.68,-1.22l0.06 -2.93c-6.6,-1.08 -5.6,-0.58 -13.46,0.16 0.45,-2.81 1.96,-4.09 4.69,-4.61 3.83,-0.74 10.7,1.94 13.89,-1.32 0.93,-0.95 1.82,-3.11 1.48,-5.02 -3.04,-0.01 -4.36,1.79 -7.12,1.69 -2.63,-0.09 -6.3,-1.15 -8.6,-1.15z"/>
   <path class="fil1" d="M669.45 26.69c-2.46,5.78 -3.21,8.25 -6.82,12.15 0.79,2.28 4.3,4.99 7.06,5.9 2.55,0.84 8.73,1.53 11.91,1.15 -0.34,-3.58 -4.3,-6.75 -5.18,-8.23 0.87,-1.9 2.71,-3.64 4.06,-5 1.89,-1.89 2.72,-2.71 5.71,-4.02 4.14,-1.81 11.95,-1.97 17.48,-1.97 -0.94,-13.25 -18.48,-0.6 -34.22,0.02z"/>
   <path class="fil1" d="M1117.82 535.37c-4.07,0.73 0.78,0.99 -2.54,1.63 -1.6,0.31 -0.22,0.69 -3.5,0.74 -0.01,3.27 -0.06,2.57 -2.8,3.18 -9.18,2.06 -20.65,7.21 -24.74,15.98 2.5,1.7 3.19,2.51 5.99,2.18 7.53,-0.87 8.97,-5.52 11.22,-6.61l5.91 -3.04c1.93,-0.85 5.11,-1.4 6.41,-2.15 2.48,-1.43 2.26,-3.19 3.87,-5.08 2.47,-2.92 4.33,-1.45 6.06,-2.92 1.82,-1.54 0.95,-3.91 4.49,-4.49l-0.31 -4.1c-3.43,1.79 -7.41,-0.05 -9.22,0.06l-0.89 4.13c-0.01,0.09 0.04,0.36 0.05,0.49z"/>
   <path class="fil1" d="M551.54 11.74c-0.04,3.01 2.01,3.54 3.4,5.17 9.28,10.83 12.72,4.01 15.75,1.73 7.48,1.79 5.92,2.46 14.02,2.46 1.58,0 2.02,-1.03 3.02,-1.68 -0.46,-0.57 -0.39,-0.37 -0.93,-0.87l-3.29 -3.28c1.52,0.68 1.9,0.79 5.48,-0.07 2.2,-0.52 2.72,-1.43 3.44,-3.52 -5.14,-3.16 -35.25,-0.3 -40.89,0.06z"/>
   <path class="fil1" d="M460.65 60.95c0.8,3.42 0.63,6.37 1.47,9.52 2.09,0.35 3.93,0.47 5.91,0.97 7.09,1.79 6.21,2.67 16.2,-0.89 3.94,-1.4 5.94,-0.47 6.62,-5.49 2.61,-0.11 3.04,-0.28 3.91,-2.35 -1,-1.42 -4.46,-2.93 -6.66,-2.93 -5.28,0 0.07,3.28 -12.4,1.37 -1.72,-0.26 -3.52,-0.11 -5.53,-0.21 -1.93,-0.1 -3.49,-0.76 -4.69,-0.81 -1.34,-0.05 -3.3,0.67 -4.83,0.82z"/>
   <path class="fil1" d="M1137.75 508.67l0.11 7.39c0,5.72 -6.96,4.17 -8.17,9.35 1.17,1.68 2.88,1.85 2.04,4.33l-2.27 4.88c2.38,0.06 5.68,-2.04 7.18,-3.04 1.49,-0.98 1.6,-0.94 2.86,-2.2 5.53,-5.56 0.15,-1.23 6.28,-4.23 2.67,-1.3 4.3,-2.74 5.92,-4.97 0.84,-1.15 1.82,-1.74 2.18,-3.26 -7.18,0.1 -8.12,3.44 -8.13,-0.81 -0.01,-1.74 0.06,-2.55 -0.22,-4.28 -0.17,-1.03 -1.03,-5.97 -1.46,-6.7 -0.66,-1.14 -4.63,-1.77 -6.5,-1.56l0.18 5.1z"/>
   <path class="fil1" d="M234.98 24.15c3.56,1.89 7.45,1.09 8.68,5.15l20.29 1.02c3.82,-0.59 9.34,-2.21 13.4,-3.07 2.61,-0.55 2.21,0.04 2.21,-3.04 -1.89,-0.65 -2.19,-0.52 -3.78,-1.6 -3.6,-2.44 -6.48,1.39 -11.28,3.87 -1.21,-1.09 -0.57,-1.58 -2,-2.67 -2.15,-1.65 -3.01,0.02 -2.36,-5.34 -10.2,-0.04 -12.31,2.13 -18.98,4.14 -1.19,0.36 -5.35,0.95 -6.18,1.54z"/>
   <path class="fil1" d="M257.65 263.91l1.68 1.08c0.75,0.76 -0.15,-0.64 0.59,0.79 -3.24,0 -5.65,-0.62 -7.7,1.4 0.46,1.11 1.21,1.98 2.1,2.8 1.44,1.33 1.84,1.03 3.95,1.08 3.53,0.09 5.13,1.52 7.46,2.77 4.51,-7.96 4.66,-6.41 12.31,-2.85 0.54,-11.66 -2.39,-2.07 -3.46,-9.24 -3.94,-0.29 -11.39,-3.27 -14.72,-1.15 -1.4,0.89 -1.28,1.85 -2.21,3.32z"/>
   <path class="fil1" d="M484.49 105.81c-0.39,1.86 1.17,2.76 -4.5,3.28 0,4.01 0.46,4.27 2.57,6.6 -1.47,2.45 -4.42,1.87 -4.62,6.02 4.92,1.75 11.91,0.3 14.61,-2.37 2.53,-2.49 2.39,-5.86 2.39,-10.13l-6.67 -0.26c0.68,-1.08 0.97,-2.3 1.08,-3.89l-4.86 0.75z"/>
   <path class="fil1" d="M1111.31 368.45c-0.94,0.78 -2.08,0.7 -3.28,1.74 -1.57,1.35 -0.7,1.23 -3.01,2.02 -2.85,0.97 -6.59,0.4 -9.93,0.59 0.63,10.87 9.48,6.32 15.16,2.32 2.39,-1.68 2.36,-2.63 5.34,-3.62 0,-6 -1.75,-9.51 -7.8,-9.6 -0.05,3.98 2.7,4.08 3.52,6.55z"/>
   <path class="fil1" d="M823.09 305.72c0.21,6.08 -0.87,3.1 -0.57,8.23 0.2,3.29 0.53,6.19 0.67,9.25l9.58 0.01c0.18,-4.24 -0.18,-8.53 -1.76,-11.75 -1.19,-2.42 -4.48,-5.82 -7.92,-5.74z"/>
   <path class="fil1" d="M1036.18 538.26l0.03 6.2c5.24,0 7.37,-0.92 9.73,-4.25 1.9,-2.7 4.05,-5.62 5.18,-9.52 -8.19,2 -5.71,1.95 -13.77,0 -0.02,2.91 -1.17,5.01 -1.17,7.57z"/>
  </g>
 </g>
</svg>
